<svg width="241" height="332" fill="none" xmlns="http://www.w3.org/2000/svg"><path d="M220.766 146.178c-17.785 8.142-35.571 17.28-53.191 27.084A8296.406 8296.406 0 0 0 130.176 95.5l-9.807-20.105-9.808 20.105c-12.632 25.754-25.265 51.841-37.566 77.762-17.62-9.804-35.405-18.942-53.357-27.25L.523 137.206l3.823 20.769a85288.94 85288.94 0 0 1 21.941 121.129l.831 4.819c.665 3.323 3.657 5.483 6.982 4.984l4.82-.83a497.245 497.245 0 0 1 163.063 0l4.821.83c3.324.499 6.482-1.661 6.981-4.984l.831-4.819a86804.154 86804.154 0 0 1 21.941-121.129l3.823-20.769-19.614 8.972Zm-9.973 29.078c-3.989 21.766-7.812 43.533-11.802 65.466-7.147-15.785-14.627-31.736-21.941-47.521 11.137-6.314 22.44-12.296 33.743-17.945Zm-36.07 64.967c-11.469-8.64-22.939-17.114-34.574-25.09 5.984-3.821 11.802-7.477 17.786-10.966 5.651 12.13 11.303 24.093 16.788 36.056Zm-54.354-114.815c9.474 19.607 18.949 39.213 28.257 58.986-9.474 5.65-18.949 11.465-28.424 17.613-9.308-6.148-18.783-11.963-28.257-17.613 9.474-19.773 18.783-39.379 28.424-58.986Zm-19.947 89.725a821.237 821.237 0 0 0-34.408 24.924c5.485-11.963 11.137-23.927 16.788-35.89 5.818 3.655 11.636 7.311 17.62 10.966Zm-36.901-21.932c-7.48 15.785-14.794 31.736-22.108 47.521-3.989-21.933-7.812-43.7-11.801-65.466a660.2 660.2 0 0 1 33.909 17.945Zm56.681 66.13c-15.292 0-30.75.665-46.043 1.994 15.292-11.797 30.585-22.763 46.043-33.231 15.459 10.468 30.751 21.6 46.044 33.231a530.617 530.617 0 0 0-46.044-1.994Zm86.103 67.294c-.665 3.323-3.823 5.483-7.148 4.819l-4.82-.997c-53.025-10.8-93.25-10.8-148.602-.166l-4.82.997c-3.325.664-6.483-1.496-7.148-4.819l-1.829-9.637c-.665-3.323 1.496-6.48 4.82-7.145l4.821-.997c58.51-11.298 101.063-11.132 157.08.333l4.82.996c3.324.665 5.485 3.822 4.82 7.145l-1.994 9.471Z" fill="#fff"/><path d="M110.063 30.699 120.368.79l10.306 29.91 31.582.664-25.099 18.942 9.142 30.24-25.931-17.944-25.93 17.945 9.142-30.24-25.1-18.943 31.583-.664Z" fill="#fff"/></svg>