<svg width="18" height="14" fill="none" xmlns="http://www.w3.org/2000/svg"><path d="M15.122 1.349c1.988 2.963 2.97 6.306 2.602 10.155a.058.058 0 0 1-.023.041 14.472 14.472 0 0 1-4.401 2.252.056.056 0 0 1-.062-.02 11.94 11.94 0 0 1-.899-1.483.058.058 0 0 1 .03-.08c.48-.182.935-.402 1.374-.662a.058.058 0 0 0 .005-.095 7.1 7.1 0 0 1-.274-.217.053.053 0 0 0-.057-.007c-2.847 1.333-5.965 1.333-8.845 0a.055.055 0 0 0-.057.008 7.46 7.46 0 0 1-.273.216.058.058 0 0 0 .006.095c.438.255.894.48 1.373.664a.057.057 0 0 1 .03.078c-.259.52-.56 1.014-.899 1.483a.057.057 0 0 1-.062.02 14.52 14.52 0 0 1-4.394-2.252.06.06 0 0 1-.023-.042c-.307-3.329.318-6.7 2.6-10.155a.052.052 0 0 1 .023-.02A14.334 14.334 0 0 1 6.48.2a.056.056 0 0 1 .057.028c.156.278.333.636.453.928a13.221 13.221 0 0 1 4.024 0c.12-.286.291-.65.446-.928A.054.054 0 0 1 11.517.2c1.258.22 2.46.605 3.582 1.126a.05.05 0 0 1 .023.022Zm-7.459 6.33c.014-.985-.694-1.8-1.582-1.8-.88 0-1.581.808-1.581 1.8 0 .99.714 1.797 1.581 1.797.881 0 1.582-.807 1.582-1.798Zm5.848 0c.014-.985-.694-1.8-1.582-1.8-.88 0-1.581.808-1.581 1.8 0 .99.714 1.797 1.581 1.797.888 0 1.582-.807 1.582-1.798Z" fill="#fff"/></svg>