<svg width="24" height="18" fill="none" xmlns="http://www.w3.org/2000/svg"><path d="M20.238 1.653c2.584 3.853 3.86 8.2 3.384 13.202a.076.076 0 0 1-.03.054 18.812 18.812 0 0 1-5.723 2.928.072.072 0 0 1-.08-.028 15.502 15.502 0 0 1-1.168-1.926.075.075 0 0 1 .039-.104 11.617 11.617 0 0 0 1.786-.861.075.075 0 0 0 .006-.123 9.216 9.216 0 0 1-.356-.283.069.069 0 0 0-.074-.01c-3.7 1.734-7.754 1.734-11.499 0a.07.07 0 0 0-.074.011c-.114.096-.234.19-.354.282a.075.075 0 0 0 .007.123c.57.332 1.163.623 1.785.863.04.015.06.062.04.102a13.813 13.813 0 0 1-1.17 1.927.074.074 0 0 1-.08.027 18.874 18.874 0 0 1-5.713-2.928.08.08 0 0 1-.03-.055c-.398-4.327.414-8.71 3.38-13.202a.067.067 0 0 1 .031-.026A18.635 18.635 0 0 1 9.002.16c.03-.005.06.01.075.036.202.363.433.828.59 1.208a17.188 17.188 0 0 1 5.23 0c.156-.372.379-.845.58-1.208a.07.07 0 0 1 .075-.036 18.68 18.68 0 0 1 4.657 1.465.058.058 0 0 1 .03.027Zm-9.696 8.229c.018-1.28-.902-2.338-2.056-2.338-1.146 0-2.057 1.049-2.057 2.338 0 1.288.93 2.337 2.057 2.337 1.145 0 2.056-1.049 2.056-2.337Zm7.602 0c.018-1.28-.901-2.338-2.056-2.338-1.145 0-2.056 1.049-2.056 2.338 0 1.288.929 2.337 2.056 2.337 1.155 0 2.056-1.049 2.056-2.337Z" fill="#562BDB"/></svg>