<svg width="18" height="18" fill="none" xmlns="http://www.w3.org/2000/svg"><path d="M12.073 1.667H5.927c-2.669 0-4.26 1.591-4.26 4.26v6.138c0 2.677 1.591 4.268 4.26 4.268h6.138c2.67 0 4.261-1.591 4.261-4.26V5.927c.007-2.669-1.584-4.26-4.253-4.26ZM9 11.845A2.848 2.848 0 0 1 6.155 9 2.848 2.848 0 0 1 9 6.155 2.848 2.848 0 0 1 11.845 9 2.848 2.848 0 0 1 9 11.845Zm4.341-6.6a.847.847 0 0 1-.154.242.848.848 0 0 1-.242.154.73.73 0 0 1-.799-.154.847.847 0 0 1-.154-.242.731.731 0 0 1-.059-.278c0-.096.022-.191.059-.279a.758.758 0 0 1 .154-.242.732.732 0 0 1 .8-.154.556.556 0 0 1 .131.066c.037.022.074.059.11.088a.758.758 0 0 1 .154.242.731.731 0 0 1 .059.279c0 .095-.022.19-.059.278Z" fill="#fff"/></svg>