<svg width="68" height="90" fill="none" xmlns="http://www.w3.org/2000/svg"><mask id="a" maskUnits="userSpaceOnUse" x=".379" y=".358" width="68" height="90" fill="#000"><path fill="#fff" d="M.379.358h68v90h-68z"/><path d="M49.798 65.202c0-.573.288-.824.862-.752 4.287.549 8.55 1.313 12.776 2.28.574.132.85.49.85 1.063v2.879c0 .573-.288.8-.85.668a137.114 137.114 0 0 0-8.453-1.66v3.022c2.107.346 4.214.74 6.31 1.182.574.12.861.478.861 1.051v2.878c0 .574-.287.8-.862.681a143.028 143.028 0 0 0-6.31-1.182v3.308c2.922.478 5.843 1.05 8.74 1.72.576.131.851.49.851 1.063v2.878c0 .573-.287.8-.85.656a131.895 131.895 0 0 0-13.063-2.352c-.574-.072-.862-.394-.862-.967V65.202ZM41.68 78.004c0-.37-.047-.609-.155-.74s-.347-.287-.706-.454a164.255 164.255 0 0 0-6.394-2.77 9.543 9.543 0 0 1-1.4-.693 3.78 3.78 0 0 1-1.007-.872 3.666 3.666 0 0 1-.598-1.158c-.132-.442-.204-.968-.204-1.577v-2.305c0-2.878 1.449-4.37 4.358-4.335 2.227.024 4.454.108 6.681.25 2.898.192 4.346 1.792 4.346 4.67v2.162c0 .573-.287.836-.874.788a113.998 113.998 0 0 0-3.484-.263c-.574-.035-.874-.334-.874-.92v-.716c0-.764-.383-1.17-1.161-1.218-.874-.036-1.748-.072-2.61-.095-.779-.024-1.162.358-1.162 1.122v.287c0 .37.048.609.156.74.108.132.347.275.706.43 2.132.92 4.263 1.887 6.394 2.914a9.42 9.42 0 0 1 1.4.8c.396.287.731.61.983.968.263.358.455.764.598 1.218.132.454.204.991.204 1.6v2.305c0 2.89-1.449 4.156-4.346 3.965a140.7 140.7 0 0 0-7.412-.275c-2.91-.023-4.358-1.397-4.358-4.287v-2.162c0-.573.288-.871.874-.883a112.72 112.72 0 0 1 3.484-.012c.587 0 .874.298.874.871v.717c0 .764.383 1.159 1.162 1.17 1.113.024 2.227.072 3.34.12.779.036 1.162-.323 1.162-1.087v-.275h.024ZM22.655 64.736c0-.573.288-.884.874-.931a110.12 110.12 0 0 1 3.485-.227c.586-.036.874.238.874.824v18.427c0 .574-.288.872-.874.908-1.162.06-2.323.143-3.485.227-.574.048-.874-.215-.874-.788v-18.44ZM3.379 67.853c0-.573.287-.931.85-1.063 3.52-.812 7.052-1.493 10.608-2.006 2.886-.418 4.334.884 4.334 3.75v5.47c0 .92-.131 1.66-.395 2.221-.263.561-.55.991-.85 1.302a3.13 3.13 0 0 1-1.21.812c.863 1.708 1.737 3.427 2.599 5.159.156.275.18.49.06.645a.683.683 0 0 1-.491.275c-1.257.143-2.503.31-3.76.49-.37.047-.634.023-.826-.096a1.46 1.46 0 0 1-.479-.573 915.04 915.04 0 0 0-2.299-4.802c-1.005.18-2.011.359-3.017.562v5.183c0 .573-.287.92-.862 1.039a110.8 110.8 0 0 0-3.424.752c-.55.108-.838-.107-.838-.692V67.853Zm5.136 2.628v4.896c1.437-.287 2.874-.537 4.31-.776.767-.12 1.15-.562 1.15-1.338v-2.591c0-.765-.383-1.1-1.15-.968-1.436.227-2.873.49-4.31.777ZM56 58.645c0 2.83-1.389 3.882-4.202 3.332a93.196 93.196 0 0 0-7.926-1.17c-2.838-.287-4.275-1.756-4.275-4.586V44.35c0-2.819 1.425-4.18 4.275-3.893 2.646.274 5.292.669 7.926 1.17 2.813.55 4.202 2.329 4.202 5.147v11.871Zm-5.052-11.512c0-.753-.371-1.207-1.126-1.326a87.98 87.98 0 0 0-3.963-.585c-.754-.096-1.137.239-1.137.991v9.04c0 .753.383 1.171 1.137 1.267 1.33.167 2.646.358 3.963.585.755.131 1.126-.18 1.126-.932v-9.04Zm-20.043-6.007c0-.562.287-.86.85-.872 1.137-.024 2.287-.036 3.424-.024.575.012.85.298.85.86v18.093c0 .561-.287.836-.85.836a81.614 81.614 0 0 0-3.424.024c-.575.012-.85-.263-.85-.824V41.126ZM11.94 43.67c0-.562.275-.92.838-1.04a96.767 96.767 0 0 1 10.44-1.791c2.838-.323 4.262 1.027 4.262 3.845v5.375c0 .907-.131 1.624-.383 2.161-.251.538-.538.944-.838 1.242a3.082 3.082 0 0 1-1.197.753c.85 1.707 1.712 3.427 2.562 5.159.156.275.168.478.06.633a.7.7 0 0 1-.479.25 96.817 96.817 0 0 0-3.7.335c-.359.036-.634 0-.814-.12-.18-.119-.335-.31-.467-.573-.754-1.6-1.508-3.188-2.262-4.777a85.43 85.43 0 0 0-2.97.49v5.087c0 .562-.287.896-.85 1.004-1.125.215-2.25.453-3.364.704-.563.132-.838-.083-.838-.656V43.669Zm5.052 2.615v4.8a86.666 86.666 0 0 1 4.239-.668c.754-.108 1.137-.526 1.137-1.278v-2.544c0-.752-.383-1.087-1.137-.98-1.413.18-2.826.407-4.239.67Zm25.275-24.566a64.867 64.867 0 0 0-4.538 2.305 372.945 372.945 0 0 0-3.196-6.617l-.839-1.707-.838 1.707a480.14 480.14 0 0 0-3.208 6.617 70.984 70.984 0 0 0-4.55-2.317l-1.628-.753.323 1.768c.622 3.427 1.245 6.867 1.868 10.318l.072.406a.518.518 0 0 0 .598.418l.407-.071a42.423 42.423 0 0 1 13.9 0l.408.071a.524.524 0 0 0 .599-.418l.072-.406c.622-3.451 1.245-6.89 1.867-10.318l.323-1.768-1.64.765Zm-.85 2.484c-.335 1.85-.67 3.714-1.006 5.565a305.1 305.1 0 0 0-1.88-4.049 60.591 60.591 0 0 1 2.886-1.516Zm-3.089 5.53a91.383 91.383 0 0 0-2.945-2.139 52.017 52.017 0 0 1 1.52-.931c.48 1.027.958 2.054 1.425 3.07Zm-4.634-9.782a475.845 475.845 0 0 1 2.407 5.016 58.48 58.48 0 0 0-2.418 1.505 87.64 87.64 0 0 0-2.407-1.493 651.53 651.53 0 0 1 2.418-5.028Zm-1.7 7.655a78.997 78.997 0 0 0-2.933 2.126c.467-1.015.946-2.042 1.425-3.057.503.298 1.005.609 1.508.931Zm-3.137-1.875c-.634 1.35-1.257 2.7-1.88 4.049-.335-1.863-.67-3.726-1.005-5.577a75.33 75.33 0 0 1 2.885 1.528Zm4.826 5.625c-1.306 0-2.622.06-3.928.18a70.506 70.506 0 0 1 3.928-2.83 70.541 70.541 0 0 1 3.927 2.83c-1.305-.12-2.61-.18-3.927-.18Zm7.351 5.733a.516.516 0 0 1-.61.406l-.408-.084c-4.526-.92-7.95-.92-12.68-.024l-.406.084a.519.519 0 0 1-.61-.406l-.157-.812a.518.518 0 0 1 .408-.61l.407-.083c4.98-.955 8.62-.943 13.398.024l.407.084c.287.06.466.334.407.609l-.156.812Z"/><path d="m32.82 11.902.874-2.544.886 2.544 2.695.048-2.144 1.624.779 2.58-2.215-1.541-2.204 1.54.779-2.58-2.143-1.623 2.694-.048Z"/></mask><path d="M49.798 65.202c0-.573.288-.824.862-.752 4.287.549 8.55 1.313 12.776 2.28.574.132.85.49.85 1.063v2.879c0 .573-.288.8-.85.668a137.114 137.114 0 0 0-8.453-1.66v3.022c2.107.346 4.214.74 6.31 1.182.574.12.861.478.861 1.051v2.878c0 .574-.287.8-.862.681a143.028 143.028 0 0 0-6.31-1.182v3.308c2.922.478 5.843 1.05 8.74 1.72.576.131.851.49.851 1.063v2.878c0 .573-.287.8-.85.656a131.895 131.895 0 0 0-13.063-2.352c-.574-.072-.862-.394-.862-.967V65.202ZM41.68 78.004c0-.37-.047-.609-.155-.74s-.347-.287-.706-.454a164.255 164.255 0 0 0-6.394-2.77 9.543 9.543 0 0 1-1.4-.693 3.78 3.78 0 0 1-1.007-.872 3.666 3.666 0 0 1-.598-1.158c-.132-.442-.204-.968-.204-1.577v-2.305c0-2.878 1.449-4.37 4.358-4.335 2.227.024 4.454.108 6.681.25 2.898.192 4.346 1.792 4.346 4.67v2.162c0 .573-.287.836-.874.788a113.998 113.998 0 0 0-3.484-.263c-.574-.035-.874-.334-.874-.92v-.716c0-.764-.383-1.17-1.161-1.218-.874-.036-1.748-.072-2.61-.095-.779-.024-1.162.358-1.162 1.122v.287c0 .37.048.609.156.74.108.132.347.275.706.43 2.132.92 4.263 1.887 6.394 2.914a9.42 9.42 0 0 1 1.4.8c.396.287.731.61.983.968.263.358.455.764.598 1.218.132.454.204.991.204 1.6v2.305c0 2.89-1.449 4.156-4.346 3.965a140.7 140.7 0 0 0-7.412-.275c-2.91-.023-4.358-1.397-4.358-4.287v-2.162c0-.573.288-.871.874-.883a112.72 112.72 0 0 1 3.484-.012c.587 0 .874.298.874.871v.717c0 .764.383 1.159 1.162 1.17 1.113.024 2.227.072 3.34.12.779.036 1.162-.323 1.162-1.087v-.275h.024ZM22.655 64.736c0-.573.288-.884.874-.931a110.12 110.12 0 0 1 3.485-.227c.586-.036.874.238.874.824v18.427c0 .574-.288.872-.874.908-1.162.06-2.323.143-3.485.227-.574.048-.874-.215-.874-.788v-18.44ZM3.379 67.853c0-.573.287-.931.85-1.063 3.52-.812 7.052-1.493 10.608-2.006 2.886-.418 4.334.884 4.334 3.75v5.47c0 .92-.131 1.66-.395 2.221-.263.561-.55.991-.85 1.302a3.13 3.13 0 0 1-1.21.812c.863 1.708 1.737 3.427 2.599 5.159.156.275.18.49.06.645a.683.683 0 0 1-.491.275c-1.257.143-2.503.31-3.76.49-.37.047-.634.023-.826-.096a1.46 1.46 0 0 1-.479-.573 915.04 915.04 0 0 0-2.299-4.802c-1.005.18-2.011.359-3.017.562v5.183c0 .573-.287.92-.862 1.039a110.8 110.8 0 0 0-3.424.752c-.55.108-.838-.107-.838-.692V67.853Zm5.136 2.628v4.896c1.437-.287 2.874-.537 4.31-.776.767-.12 1.15-.562 1.15-1.338v-2.591c0-.765-.383-1.1-1.15-.968-1.436.227-2.873.49-4.31.777ZM56 58.645c0 2.83-1.389 3.882-4.202 3.332a93.196 93.196 0 0 0-7.926-1.17c-2.838-.287-4.275-1.756-4.275-4.586V44.35c0-2.819 1.425-4.18 4.275-3.893 2.646.274 5.292.669 7.926 1.17 2.813.55 4.202 2.329 4.202 5.147v11.871Zm-5.052-11.512c0-.753-.371-1.207-1.126-1.326a87.98 87.98 0 0 0-3.963-.585c-.754-.096-1.137.239-1.137.991v9.04c0 .753.383 1.171 1.137 1.267 1.33.167 2.646.358 3.963.585.755.131 1.126-.18 1.126-.932v-9.04Zm-20.043-6.007c0-.562.287-.86.85-.872 1.137-.024 2.287-.036 3.424-.024.575.012.85.298.85.86v18.093c0 .561-.287.836-.85.836a81.614 81.614 0 0 0-3.424.024c-.575.012-.85-.263-.85-.824V41.126ZM11.94 43.67c0-.562.275-.92.838-1.04a96.767 96.767 0 0 1 10.44-1.791c2.838-.323 4.262 1.027 4.262 3.845v5.375c0 .907-.131 1.624-.383 2.161-.251.538-.538.944-.838 1.242a3.082 3.082 0 0 1-1.197.753c.85 1.707 1.712 3.427 2.562 5.159.156.275.168.478.06.633a.7.7 0 0 1-.479.25 96.817 96.817 0 0 0-3.7.335c-.359.036-.634 0-.814-.12-.18-.119-.335-.31-.467-.573-.754-1.6-1.508-3.188-2.262-4.777a85.43 85.43 0 0 0-2.97.49v5.087c0 .562-.287.896-.85 1.004-1.125.215-2.25.453-3.364.704-.563.132-.838-.083-.838-.656V43.669Zm5.052 2.615v4.8a86.666 86.666 0 0 1 4.239-.668c.754-.108 1.137-.526 1.137-1.278v-2.544c0-.752-.383-1.087-1.137-.98-1.413.18-2.826.407-4.239.67Zm25.275-24.566a64.867 64.867 0 0 0-4.538 2.305 372.945 372.945 0 0 0-3.196-6.617l-.839-1.707-.838 1.707a480.14 480.14 0 0 0-3.208 6.617 70.984 70.984 0 0 0-4.55-2.317l-1.628-.753.323 1.768c.622 3.427 1.245 6.867 1.868 10.318l.072.406a.518.518 0 0 0 .598.418l.407-.071a42.423 42.423 0 0 1 13.9 0l.408.071a.524.524 0 0 0 .599-.418l.072-.406c.622-3.451 1.245-6.89 1.867-10.318l.323-1.768-1.64.765Zm-.85 2.484c-.335 1.85-.67 3.714-1.006 5.565a305.1 305.1 0 0 0-1.88-4.049 60.591 60.591 0 0 1 2.886-1.516Zm-3.089 5.53a91.383 91.383 0 0 0-2.945-2.139 52.017 52.017 0 0 1 1.52-.931c.48 1.027.958 2.054 1.425 3.07Zm-4.634-9.782a475.845 475.845 0 0 1 2.407 5.016 58.48 58.48 0 0 0-2.418 1.505 87.64 87.64 0 0 0-2.407-1.493 651.53 651.53 0 0 1 2.418-5.028Zm-1.7 7.655a78.997 78.997 0 0 0-2.933 2.126c.467-1.015.946-2.042 1.425-3.057.503.298 1.005.609 1.508.931Zm-3.137-1.875c-.634 1.35-1.257 2.7-1.88 4.049-.335-1.863-.67-3.726-1.005-5.577a75.33 75.33 0 0 1 2.885 1.528Zm4.826 5.625c-1.306 0-2.622.06-3.928.18a70.506 70.506 0 0 1 3.928-2.83 70.541 70.541 0 0 1 3.927 2.83c-1.305-.12-2.61-.18-3.927-.18Zm7.351 5.733a.516.516 0 0 1-.61.406l-.408-.084c-4.526-.92-7.95-.92-12.68-.024l-.406.084a.519.519 0 0 1-.61-.406l-.157-.812a.518.518 0 0 1 .408-.61l.407-.083c4.98-.955 8.62-.943 13.398.024l.407.084c.287.06.466.334.407.609l-.156.812Z" fill="#fff"/><path d="m32.82 11.902.874-2.544.886 2.544 2.695.048-2.144 1.624.779 2.58-2.215-1.541-2.204 1.54.779-2.58-2.143-1.623 2.694-.048Z" fill="#fff"/><path d="M49.798 65.202c0-.573.288-.824.862-.752 4.287.549 8.55 1.313 12.776 2.28.574.132.85.49.85 1.063v2.879c0 .573-.288.8-.85.668a137.114 137.114 0 0 0-8.453-1.66v3.022c2.107.346 4.214.74 6.31 1.182.574.12.861.478.861 1.051v2.878c0 .574-.287.8-.862.681a143.028 143.028 0 0 0-6.31-1.182v3.308c2.922.478 5.843 1.05 8.74 1.72.576.131.851.49.851 1.063v2.878c0 .573-.287.8-.85.656a131.895 131.895 0 0 0-13.063-2.352c-.574-.072-.862-.394-.862-.967V65.202ZM41.68 78.004c0-.37-.047-.609-.155-.74s-.347-.287-.706-.454a164.255 164.255 0 0 0-6.394-2.77 9.543 9.543 0 0 1-1.4-.693 3.78 3.78 0 0 1-1.007-.872 3.666 3.666 0 0 1-.598-1.158c-.132-.442-.204-.968-.204-1.577v-2.305c0-2.878 1.449-4.37 4.358-4.335 2.227.024 4.454.108 6.681.25 2.898.192 4.346 1.792 4.346 4.67v2.162c0 .573-.287.836-.874.788a113.998 113.998 0 0 0-3.484-.263c-.574-.035-.874-.334-.874-.92v-.716c0-.764-.383-1.17-1.161-1.218-.874-.036-1.748-.072-2.61-.095-.779-.024-1.162.358-1.162 1.122v.287c0 .37.048.609.156.74.108.132.347.275.706.43 2.132.92 4.263 1.887 6.394 2.914a9.42 9.42 0 0 1 1.4.8c.396.287.731.61.983.968.263.358.455.764.598 1.218.132.454.204.991.204 1.6v2.305c0 2.89-1.449 4.156-4.346 3.965a140.7 140.7 0 0 0-7.412-.275c-2.91-.023-4.358-1.397-4.358-4.287v-2.162c0-.573.288-.871.874-.883a112.72 112.72 0 0 1 3.484-.012c.587 0 .874.298.874.871v.717c0 .764.383 1.159 1.162 1.17 1.113.024 2.227.072 3.34.12.779.036 1.162-.323 1.162-1.087v-.275h.024ZM22.655 64.736c0-.573.288-.884.874-.931a110.12 110.12 0 0 1 3.485-.227c.586-.036.874.238.874.824v18.427c0 .574-.288.872-.874.908-1.162.06-2.323.143-3.485.227-.574.048-.874-.215-.874-.788v-18.44ZM3.379 67.853c0-.573.287-.931.85-1.063 3.52-.812 7.052-1.493 10.608-2.006 2.886-.418 4.334.884 4.334 3.75v5.47c0 .92-.131 1.66-.395 2.221-.263.561-.55.991-.85 1.302a3.13 3.13 0 0 1-1.21.812c.863 1.708 1.737 3.427 2.599 5.159.156.275.18.49.06.645a.683.683 0 0 1-.491.275c-1.257.143-2.503.31-3.76.49-.37.047-.634.023-.826-.096a1.46 1.46 0 0 1-.479-.573 915.04 915.04 0 0 0-2.299-4.802c-1.005.18-2.011.359-3.017.562v5.183c0 .573-.287.92-.862 1.039a110.8 110.8 0 0 0-3.424.752c-.55.108-.838-.107-.838-.692V67.853Zm5.136 2.628v4.896c1.437-.287 2.874-.537 4.31-.776.767-.12 1.15-.562 1.15-1.338v-2.591c0-.765-.383-1.1-1.15-.968-1.436.227-2.873.49-4.31.777ZM56 58.645c0 2.83-1.389 3.882-4.202 3.332a93.196 93.196 0 0 0-7.926-1.17c-2.838-.287-4.275-1.756-4.275-4.586V44.35c0-2.819 1.425-4.18 4.275-3.893 2.646.274 5.292.669 7.926 1.17 2.813.55 4.202 2.329 4.202 5.147v11.871Zm-5.052-11.512c0-.753-.371-1.207-1.126-1.326a87.98 87.98 0 0 0-3.963-.585c-.754-.096-1.137.239-1.137.991v9.04c0 .753.383 1.171 1.137 1.267 1.33.167 2.646.358 3.963.585.755.131 1.126-.18 1.126-.932v-9.04Zm-20.043-6.007c0-.562.287-.86.85-.872 1.137-.024 2.287-.036 3.424-.024.575.012.85.298.85.86v18.093c0 .561-.287.836-.85.836a81.614 81.614 0 0 0-3.424.024c-.575.012-.85-.263-.85-.824V41.126ZM11.94 43.67c0-.562.275-.92.838-1.04a96.767 96.767 0 0 1 10.44-1.791c2.838-.323 4.262 1.027 4.262 3.845v5.375c0 .907-.131 1.624-.383 2.161-.251.538-.538.944-.838 1.242a3.082 3.082 0 0 1-1.197.753c.85 1.707 1.712 3.427 2.562 5.159.156.275.168.478.06.633a.7.7 0 0 1-.479.25 96.817 96.817 0 0 0-3.7.335c-.359.036-.634 0-.814-.12-.18-.119-.335-.31-.467-.573-.754-1.6-1.508-3.188-2.262-4.777a85.43 85.43 0 0 0-2.97.49v5.087c0 .562-.287.896-.85 1.004-1.125.215-2.25.453-3.364.704-.563.132-.838-.083-.838-.656V43.669Zm5.052 2.615v4.8a86.666 86.666 0 0 1 4.239-.668c.754-.108 1.137-.526 1.137-1.278v-2.544c0-.752-.383-1.087-1.137-.98-1.413.18-2.826.407-4.239.67Zm25.275-24.566a64.867 64.867 0 0 0-4.538 2.305 372.945 372.945 0 0 0-3.196-6.617l-.839-1.707-.838 1.707a480.14 480.14 0 0 0-3.208 6.617 70.984 70.984 0 0 0-4.55-2.317l-1.628-.753.323 1.768c.622 3.427 1.245 6.867 1.868 10.318l.072.406a.518.518 0 0 0 .598.418l.407-.071a42.423 42.423 0 0 1 13.9 0l.408.071a.524.524 0 0 0 .599-.418l.072-.406c.622-3.451 1.245-6.89 1.867-10.318l.323-1.768-1.64.765Zm-.85 2.484c-.335 1.85-.67 3.714-1.006 5.565a305.1 305.1 0 0 0-1.88-4.049 60.591 60.591 0 0 1 2.886-1.516Zm-3.089 5.53a91.383 91.383 0 0 0-2.945-2.139 52.017 52.017 0 0 1 1.52-.931c.48 1.027.958 2.054 1.425 3.07Zm-4.634-9.782a475.845 475.845 0 0 1 2.407 5.016 58.48 58.48 0 0 0-2.418 1.505 87.64 87.64 0 0 0-2.407-1.493 651.53 651.53 0 0 1 2.418-5.028Zm-1.7 7.655a78.997 78.997 0 0 0-2.933 2.126c.467-1.015.946-2.042 1.425-3.057.503.298 1.005.609 1.508.931Zm-3.137-1.875c-.634 1.35-1.257 2.7-1.88 4.049-.335-1.863-.67-3.726-1.005-5.577a75.33 75.33 0 0 1 2.885 1.528Zm4.826 5.625c-1.306 0-2.622.06-3.928.18a70.506 70.506 0 0 1 3.928-2.83 70.541 70.541 0 0 1 3.927 2.83c-1.305-.12-2.61-.18-3.927-.18Zm7.351 5.733a.516.516 0 0 1-.61.406l-.408-.084c-4.526-.92-7.95-.92-12.68-.024l-.406.084a.519.519 0 0 1-.61-.406l-.157-.812a.518.518 0 0 1 .408-.61l.407-.083c4.98-.955 8.62-.943 13.398.024l.407.084c.287.06.466.334.407.609l-.156.812Z" stroke="#53CC06" stroke-width="5.861" mask="url(#a)"/><path d="m32.82 11.902.874-2.544.886 2.544 2.695.048-2.144 1.624.779 2.58-2.215-1.541-2.204 1.54.779-2.58-2.143-1.623 2.694-.048Z" stroke="#53CC06" stroke-width="5.861" mask="url(#a)"/></svg>